<svg data-v-fde0c5aa="" xmlns="http://www.w3.org/2000/svg" viewBox="0 0 300 300" class="font"><!----><defs data-v-fde0c5aa=""><!----></defs><rect data-v-fde0c5aa="" fill="transparent" x="0" y="0" width="300px" height="300px" class="logo-background-square"></rect><defs data-v-fde0c5aa=""><linearGradient data-v-fde0c5aa="" gradientTransform="rotate(25)" id="afd30426-8532-48f0-8ffe-fa120dd8cac8" x1="0%" y1="0%" x2="100%" y2="0%"><stop data-v-fde0c5aa="" offset="0%" stop-color="#0D7CE9" stop-opacity="1"></stop><stop data-v-fde0c5aa="" offset="100%" stop-color="#15CFF1" stop-opacity="1"></stop></linearGradient></defs><g data-v-fde0c5aa="" id="091a9d95-c9ea-4ff7-a927-48d9c4fd6555" fill="url(#afd30426-8532-48f0-8ffe-fa120dd8cac8)" transform="matrix(5.506883499338707,0,0,5.506883499338707,39.06382971320639,106.82603252490081)"><path d="M5.95 8.55L3.89 13.72L3.37 13.72L1.55 7.90L1.55 7.90Q1.43 7.50 1.32 7.27L1.32 7.27L1.32 7.27Q1.20 7.03 1.05 6.89L1.05 6.89L1.05 6.89Q0.90 6.75 0.69 6.70L0.69 6.70L0.69 6.70Q0.48 6.65 0.17 6.65L0.17 6.65L0.17 6.16L3.88 6.16L3.88 6.65L3.88 6.65Q3.33 6.65 3.11 6.78L3.11 6.78L3.11 6.78Q2.88 6.90 2.88 7.21L2.88 7.21L2.88 7.21Q2.88 7.35 2.93 7.54L2.93 7.54L2.93 7.54Q2.97 7.73 3.04 8.01L3.04 8.01L3.99 11.35L4.05 11.35L6.10 6.16L6.54 6.16L8.40 11.35L8.46 11.35L9.30 9.09L9.30 9.09Q9.46 8.62 9.58 8.31L9.58 8.31L9.58 8.31Q9.69 7.99 9.75 7.78L9.75 7.78L9.75 7.78Q9.81 7.56 9.84 7.42L9.84 7.42L9.84 7.42Q9.87 7.28 9.87 7.15L9.87 7.15L9.87 7.15Q9.87 6.85 9.69 6.75L9.69 6.75L9.69 6.75Q9.51 6.65 8.93 6.65L8.93 6.65L8.93 6.16L11.73 6.16L11.73 6.65L11.73 6.65Q11.52 6.65 11.38 6.71L11.38 6.71L11.38 6.71Q11.23 6.78 11.08 6.96L11.08 6.96L11.08 6.96Q10.93 7.14 10.78 7.48L10.78 7.48L10.78 7.48Q10.63 7.81 10.40 8.36L10.40 8.36L8.23 13.72L7.71 13.72L6.01 8.55L5.95 8.55ZM15.12 6.02L15.12 11.35L15.12 11.35Q15.12 11.90 15.17 12.23L15.17 12.23L15.17 12.23Q15.22 12.56 15.36 12.75L15.36 12.75L15.36 12.75Q15.50 12.94 15.75 13.01L15.75 13.01L15.75 13.01Q16.00 13.08 16.42 13.09L16.42 13.09L16.42 13.58L12.40 13.58L12.40 13.09L12.40 13.09Q12.82 13.08 13.09 13.00L13.09 13.00L13.09 13.00Q13.36 12.92 13.50 12.75L13.50 12.75L13.50 12.75Q13.65 12.57 13.70 12.26L13.70 12.26L13.70 12.26Q13.75 11.94 13.75 11.45L13.75 11.45L13.75 9.66L13.75 9.66Q13.75 8.85 13.73 8.32L13.73 8.32L13.73 8.32Q13.71 7.80 13.65 7.60L13.65 7.60L13.65 7.60Q13.58 7.28 13.33 7.16L13.33 7.16L13.33 7.16Q13.08 7.04 12.38 7.04L12.38 7.04L12.38 6.55L15.12 6.02ZM13.51 3.18L13.51 3.18L13.51 3.18Q13.51 2.81 13.76 2.56L13.76 2.56L13.76 2.56Q14.01 2.31 14.38 2.31L14.38 2.31L14.38 2.31Q14.74 2.31 14.99 2.56L14.99 2.56L14.99 2.56Q15.25 2.81 15.25 3.18L15.25 3.18L15.25 3.18Q15.25 3.54 14.99 3.79L14.99 3.79L14.99 3.79Q14.74 4.05 14.38 4.05L14.38 4.05L14.38 4.05Q14.01 4.05 13.76 3.79L13.76 3.79L13.76 3.79Q13.51 3.54 13.51 3.18ZM19.63 1.96L19.63 11.40L19.63 11.40Q19.63 11.93 19.67 12.25L19.67 12.25L19.67 12.25Q19.71 12.57 19.85 12.75L19.85 12.75L19.85 12.75Q19.98 12.94 20.22 13.01L20.22 13.01L20.22 13.01Q20.47 13.08 20.87 13.09L20.87 13.09L20.87 13.58L17.01 13.58L17.01 13.09L17.01 13.09Q17.43 13.08 17.68 13.00L17.68 13.00L17.68 13.00Q17.93 12.92 18.08 12.75L18.08 12.75L18.08 12.75Q18.23 12.59 18.28 12.29L18.28 12.29L18.28 12.29Q18.33 11.98 18.33 11.49L18.33 11.49L18.33 5.46L18.33 5.46Q18.33 4.70 18.31 4.19L18.31 4.19L18.31 4.19Q18.28 3.68 18.24 3.50L18.24 3.50L18.24 3.50Q18.17 3.18 17.91 3.07L17.91 3.07L17.91 3.07Q17.65 2.95 16.98 2.95L16.98 2.95L16.98 2.48L19.63 1.96ZM24.18 1.96L24.18 11.40L24.18 11.40Q24.18 11.93 24.22 12.25L24.22 12.25L24.22 12.25Q24.26 12.57 24.40 12.75L24.40 12.75L24.40 12.75Q24.53 12.94 24.77 13.01L24.77 13.01L24.77 13.01Q25.02 13.08 25.42 13.09L25.42 13.09L25.42 13.58L21.56 13.58L21.56 13.09L21.56 13.09Q21.98 13.08 22.23 13.00L22.23 13.00L22.23 13.00Q22.48 12.92 22.63 12.75L22.63 12.75L22.63 12.75Q22.78 12.59 22.83 12.29L22.83 12.29L22.83 12.29Q22.88 11.98 22.88 11.49L22.88 11.49L22.88 5.46L22.88 5.46Q22.88 4.70 22.86 4.19L22.86 4.19L22.86 4.19Q22.83 3.68 22.79 3.50L22.79 3.50L22.79 3.50Q22.72 3.18 22.46 3.07L22.46 3.07L22.46 3.07Q22.20 2.95 21.53 2.95L21.53 2.95L21.53 2.48L24.18 1.96ZM30.67 13.58L30.67 13.09L30.67 13.09Q31.14 13.09 31.31 13.05L31.31 13.05L31.31 13.05Q31.49 13.01 31.49 12.94L31.49 12.94L31.49 12.94Q31.47 12.82 31.26 12.53L31.26 12.53L31.26 12.53Q31.05 12.24 30.72 11.83L30.72 11.83L29.23 10.04L28.71 10.53L28.71 11.35L28.71 11.35Q28.71 11.90 28.76 12.23L28.76 12.23L28.76 12.23Q28.81 12.56 28.95 12.75L28.95 12.75L28.95 12.75Q29.08 12.94 29.34 13.01L29.34 13.01L29.34 13.01Q29.60 13.08 30.02 13.09L30.02 13.09L30.02 13.58L26.04 13.58L26.04 13.09L26.04 13.09Q26.46 13.08 26.72 13.01L26.72 13.01L26.72 13.01Q26.98 12.94 27.13 12.75L27.13 12.75L27.13 12.75Q27.27 12.57 27.33 12.26L27.33 12.26L27.33 12.26Q27.38 11.96 27.38 11.45L27.38 11.45L27.38 5.59L27.38 5.59Q27.38 4.52 27.36 3.98L27.36 3.98L27.36 3.98Q27.34 3.43 27.22 3.23L27.22 3.23L27.22 3.23Q27.09 3.04 26.80 3.00L26.80 3.00L26.80 3.00Q26.50 2.97 26.01 2.97L26.01 2.97L26.01 2.49L28.71 1.96L28.71 9.65L30.02 8.37L30.02 8.37Q30.65 7.74 30.95 7.44L30.95 7.44L30.95 7.44Q31.26 7.14 31.26 6.99L31.26 6.99L31.26 6.99Q31.26 6.83 30.97 6.74L30.97 6.74L30.97 6.74Q30.67 6.65 30.13 6.65L30.13 6.65L30.13 6.16L33.77 6.16L33.77 6.65L33.77 6.65Q33.50 6.65 33.31 6.68L33.31 6.68L33.31 6.68Q33.11 6.71 32.94 6.79L32.94 6.79L32.94 6.79Q32.76 6.87 32.56 7.02L32.56 7.02L32.56 7.02Q32.37 7.17 32.12 7.39L32.12 7.39L30.10 9.18L32.87 12.32L32.87 12.32Q33.07 12.56 33.23 12.71L33.23 12.71L33.23 12.71Q33.39 12.85 33.55 12.94L33.55 12.94L33.55 12.94Q33.71 13.02 33.90 13.05L33.90 13.05L33.90 13.05Q34.09 13.09 34.36 13.09L34.36 13.09L34.36 13.58L30.67 13.58ZM35.91 13.09L35.63 13.58L35.32 13.58L35.32 11.17L35.67 11.17L35.67 11.17Q36.22 13.15 37.66 13.15L37.66 13.15L37.66 13.15Q38.22 13.15 38.55 12.87L38.55 12.87L38.55 12.87Q38.88 12.60 38.88 12.04L38.88 12.04L38.88 12.04Q38.88 11.83 38.82 11.68L38.82 11.68L38.82 11.68Q38.75 11.54 38.58 11.38L38.58 11.38L38.58 11.38Q38.40 11.21 38.09 11.00L38.09 11.00L38.09 11.00Q37.77 10.79 37.25 10.47L37.25 10.47L37.25 10.47Q36.78 10.18 36.43 9.93L36.43 9.93L36.43 9.93Q36.08 9.67 35.84 9.41L35.84 9.41L35.84 9.41Q35.60 9.16 35.48 8.86L35.48 8.86L35.48 8.86Q35.36 8.57 35.36 8.18L35.36 8.18L35.36 8.18Q35.36 7.70 35.52 7.30L35.52 7.30L35.52 7.30Q35.69 6.90 35.97 6.62L35.97 6.62L35.97 6.62Q36.25 6.34 36.62 6.18L36.62 6.18L36.62 6.18Q37.00 6.02 37.45 6.02L37.45 6.02L37.45 6.02Q37.83 6.02 38.23 6.14L38.23 6.14L38.23 6.14Q38.64 6.26 38.95 6.45L38.95 6.45L39.23 6.16L39.49 6.16L39.49 8.18L39.13 8.18L39.13 8.18Q38.82 7.32 38.46 6.96L38.46 6.96L38.46 6.96Q38.09 6.59 37.56 6.59L37.56 6.59L37.56 6.59Q37.09 6.59 36.80 6.85L36.80 6.85L36.80 6.85Q36.51 7.10 36.51 7.55L36.51 7.55L36.51 7.55Q36.51 7.78 36.59 7.96L36.59 7.96L36.59 7.96Q36.67 8.13 36.83 8.30L36.83 8.30L36.83 8.30Q37.00 8.47 37.26 8.64L37.26 8.64L37.26 8.64Q37.52 8.82 37.88 9.04L37.88 9.04L37.88 9.04Q38.49 9.42 38.91 9.72L38.91 9.72L38.91 9.72Q39.34 10.01 39.61 10.30L39.61 10.30L39.61 10.30Q39.87 10.58 40.00 10.89L40.00 10.89L40.00 10.89Q40.12 11.20 40.12 11.59L40.12 11.59L40.12 11.59Q40.12 12.59 39.48 13.15L39.48 13.15L39.48 13.15Q38.84 13.72 37.79 13.72L37.79 13.72L37.79 13.72Q36.69 13.72 35.91 13.09L35.91 13.09Z"></path></g><!----><!----></svg>